<?xml version="1.0" standalone="no"?>
<!DOCTYPE svg PUBLIC "-//W3C//DTD SVG 20010904//EN"
 "http://www.w3.org/TR/2001/REC-SVG-20010904/DTD/svg10.dtd">
<svg version="1.0" xmlns="http://www.w3.org/2000/svg"
 width="806.000000pt" height="677.000000pt" viewBox="0 0 806.000000 677.000000"
 preserveAspectRatio="xMidYMid meet">

<g transform="translate(0.000000,677.000000) scale(0.100000,-0.100000)"
fill="#000000" stroke="none">
<path d="M5227 5556 c-89 -32 -147 -107 -167 -216 -25 -139 -5 -189 158 -390
140 -172 132 -163 404 -486 139 -166 264 -316 278 -334 14 -18 38 -48 53 -66
16 -18 26 -38 22 -44 -4 -7 -753 -10 -2350 -10 l-2344 0 -36 -22 c-109 -67
-150 -149 -149 -298 1 -103 22 -157 88 -228 l46 -49 1667 -7 c918 -3 1982 -6
2365 -7 576 0 698 -2 708 -14 9 -10 -16 -45 -117 -167 -70 -84 -146 -175 -167
-203 -22 -27 -42 -52 -46 -55 -7 -6 -144 -169 -180 -214 -28 -36 -132 -159
-141 -166 -23 -20 -211 -264 -231 -300 -40 -72 -53 -123 -39 -161 6 -17 11
-42 11 -54 0 -63 108 -200 167 -211 18 -3 36 -10 39 -15 8 -13 63 -11 106 4
48 17 87 54 222 210 60 70 122 141 138 159 17 18 55 65 86 103 31 39 61 75 67
80 12 10 206 238 260 305 17 20 51 62 77 91 25 30 87 104 138 164 50 61 101
121 114 135 12 14 71 86 131 160 154 193 176 220 211 259 45 53 64 110 63 194
0 112 -25 156 -200 365 -45 55 -188 229 -259 316 -8 10 -22 26 -30 35 -9 9
-36 41 -60 71 -24 30 -49 60 -55 65 -6 6 -17 19 -25 31 -8 12 -40 49 -70 84
-30 34 -64 74 -75 88 -11 13 -32 37 -47 53 -16 15 -28 30 -28 34 0 4 -12 19
-27 35 -16 15 -46 49 -68 75 -22 27 -45 53 -50 59 -6 6 -63 74 -129 151 -65
77 -126 147 -135 155 -9 8 -45 49 -80 90 -35 41 -80 90 -100 108 -57 51 -136
65 -214 38z"/>
</g>
</svg>
