<?xml version="1.0" ?>
<!DOCTYPE svg  PUBLIC '-//W3C//DTD SVG 1.1//EN'  'http://www.w3.org/Graphics/SVG/1.1/DTD/svg11.dtd'>
<!-- Uploaded to: SVG Repo, www.svgrepo.com, Generator: SVG Repo Mixer Tools -->
<svg fill="#000000" width="800px" height="800px" viewBox="0 0 100 100" enable-background="new 0 0 100 100" id="Layer_1" version="1.1" xml:space="preserve" xmlns="http://www.w3.org/2000/svg" xmlns:xlink="http://www.w3.org/1999/xlink">
<g>
<path d="M61.9,19.2c-5,0-9.8,2-13.3,5.5c-6.9,6.9-7.3,17.8-1.3,25.2L24.7,72.5l2.8,2.8l22.5-22.5c3.3,2.7,7.5,4.2,11.9,4.2   c5,0,9.8-2,13.3-5.5c7.4-7.4,7.4-19.3,0-26.7C71.7,21.2,67,19.2,61.9,19.2z M72.5,48.6c-2.8,2.8-6.5,4.4-10.5,4.4   c-4,0-7.7-1.5-10.5-4.4c-5.8-5.8-5.8-15.2,0-21c2.8-2.8,6.5-4.4,10.5-4.4c4,0,7.7,1.5,10.5,4.4C78.3,33.3,78.3,42.8,72.5,48.6z"/>
<polygon points="63.9,28.3 59.9,28.3 59.9,36.1 52.2,36.1 52.2,40.1 59.9,40.1 59.9,47.8 63.9,47.8 63.9,40.1 71.7,40.1 71.7,36.1    63.9,36.1  "/>
</g>
</svg>