<?xml version="1.0" ?>
<!DOCTYPE svg  PUBLIC '-//W3C//DTD SVG 1.1//EN'  'http://www.w3.org/Graphics/SVG/1.1/DTD/svg11.dtd'>
<!-- Uploaded to: SVG Repo, www.svgrepo.com, Generator: SVG Repo Mixer Tools -->
<svg fill="#000000" width="800px" height="800px" viewBox="0 0 100 100" enable-background="new 0 0 100 100" id="Layer_1" version="1.1" xml:space="preserve" xmlns="http://www.w3.org/2000/svg" xmlns:xlink="http://www.w3.org/1999/xlink">
<g>
<path d="M27.4,57.9c4.8,0,8.8-3.9,8.8-8.8s-3.9-8.8-8.8-8.8s-8.8,3.9-8.8,8.8S22.6,57.9,27.4,57.9z M27.4,44.4   c2.6,0,4.8,2.1,4.8,4.8s-2.1,4.8-4.8,4.8s-4.8-2.1-4.8-4.8S24.8,44.4,27.4,44.4z"/>
<path d="M27.4,64.4c8.4,0,15.3,6.8,15.3,15.3h4c0-10.6-8.6-19.3-19.3-19.3S8.1,69.1,8.1,79.7h4C12.1,71.3,19,64.4,27.4,64.4z"/>
<path d="M72.6,35.8c4.8,0,8.8-3.9,8.8-8.8s-3.9-8.8-8.8-8.8s-8.8,3.9-8.8,8.8S67.8,35.8,72.6,35.8z M72.6,22.3   c2.6,0,4.8,2.1,4.8,4.8s-2.1,4.8-4.8,4.8s-4.8-2.1-4.8-4.8S70,22.3,72.6,22.3z"/>
<path d="M72.6,38.4C62,38.4,53.4,47,53.4,57.6h4c0-8.4,6.8-15.3,15.3-15.3s15.3,6.8,15.3,15.3h4C91.9,47,83.2,38.4,72.6,38.4z"/>
</g>
</svg>