<?xml version="1.0" ?>
<!DOCTYPE svg  PUBLIC '-//W3C//DTD SVG 1.1//EN'  'http://www.w3.org/Graphics/SVG/1.1/DTD/svg11.dtd'>
<!-- Uploaded to: SVG Repo, www.svgrepo.com, Generator: SVG Repo Mixer Tools -->
<svg fill="#000000" width="800px" height="800px" viewBox="0 0 100 100" version="1.1" xml:space="preserve" xmlns="http://www.w3.org/2000/svg" xmlns:xlink="http://www.w3.org/1999/xlink">
<g id="_x31_"/>
<g id="_x32_"/>
<g id="_x33_">
<path d="M67.3,85.1H32.7c-1.1,0-2-0.9-2-2V26.9c0-0.7,0.4-1.3,1-1.7l15.9-9.7c1.5-0.9,3.4-0.9,4.9,0l15.9,9.7c0.6,0.4,1,1,1,1.7   v56.2C69.3,84.3,68.4,85.1,67.3,85.1z M34.7,81.1h30.6V28l-15-9.1c-0.2-0.1-0.5-0.1-0.7,0l-15,9.1V81.1z M32.7,85.1h-21   c-1.1,0-2-0.9-2-2V50.1c0-2.8,2.3-5,5-5h18c1.1,0,2,0.9,2,2v36.1C34.7,84.3,33.8,85.1,32.7,85.1z M13.7,81.1h17V49h-16   c-0.6,0-1,0.5-1,1V81.1z M54.1,58h-8.3c-1.1,0-2-0.9-2-2v-4.2h-4.2c-1.1,0-2-0.9-2-2v-8.3c0-1.1,0.9-2,2-2h4.2v-4.2   c0-1.1,0.9-2,2-2h8.3c1.1,0,2,0.9,2,2v4.2h4.2c1.1,0,2,0.9,2,2v8.3c0,1.1-0.9,2-2,2h-4.2V56C56.1,57.1,55.3,58,54.1,58z M47.9,54   h4.3v-4.2c0-1.1,0.9-2,2-2h4.2v-4.3h-4.2c-1.1,0-2-0.9-2-2v-4.2h-4.3v4.2c0,1.1-0.9,2-2,2h-4.2v4.3h4.2c1.1,0,2,0.9,2,2V54z    M56,85.1H43.9c-1.1,0-2-0.9-2-2V69.4c0-1.1,0.9-2,2-2H56c1.1,0,2,0.9,2,2v13.8C58,84.3,57.2,85.1,56,85.1z M45.9,81.1H54v-9.8   h-8.1V81.1z M24.2,65.7v-4.9c0-1.1-0.9-2-2-2s-2,0.9-2,2v4.9c0,1.1,0.9,2,2,2S24.2,66.8,24.2,65.7z M88.3,85.1h-21   c-1.1,0-2-0.9-2-2V47c0-1.1,0.9-2,2-2h18c2.8,0,5,2.3,5,5v33.1C90.3,84.3,89.4,85.1,88.3,85.1z M69.3,81.1h17V50.1c0-0.6-0.5-1-1-1   h-16V81.1z M79.8,65.7v-4.9c0-1.1-0.9-2-2-2s-2,0.9-2,2v4.9c0,1.1,0.9,2,2,2S79.8,66.8,79.8,65.7z"/>
</g>
<g id="_x34_"/>
<g id="_x35_"/>
<g id="_x36_"/>
<g id="_x37_"/>
<g id="_x38_"/>
<g id="_x39_"/>
<g id="_x31_0"/>
<g id="_x31_1"/>
<g id="_x31_2"/>
<g id="_x31_3"/>
<g id="_x31_4"/>
<g id="_x31_5"/>
<g id="_x31_6"/>
<g id="_x31_7"/>
<g id="_x31_8"/>
<g id="_x31_9"/>
<g id="_x32_0"/>
<g id="_x32_1"/>
<g id="_x32_2"/>
<g id="_x32_3"/>
<g id="_x32_4"/>
<g id="_x32_5"/>
</svg>