<?xml version="1.0" standalone="no"?>
<!DOCTYPE svg PUBLIC "-//W3C//DTD SVG 20010904//EN"
 "http://www.w3.org/TR/2001/REC-SVG-20010904/DTD/svg10.dtd">
<svg version="1.0" xmlns="http://www.w3.org/2000/svg"
 width="900.000000pt" height="900.000000pt" viewBox="0 0 900.000000 900.000000"
 preserveAspectRatio="xMidYMid meet">

<g transform="translate(0.000000,900.000000) scale(0.100000,-0.100000)"
fill="#000000" stroke="none">
<path d="M4840 7904 c-20 -52 -3 -61 29 -15 26 36 26 41 1 41 -13 0 -24 -10
-30 -26z"/>
<path d="M4067 7872 c-36 -40 -12 -95 53 -122 33 -14 45 -37 29 -56 -17 -20
-49 -17 -76 7 -21 21 -23 21 -29 4 -17 -43 77 -73 124 -39 18 12 22 24 20 52
-2 29 -10 41 -38 59 -75 48 -76 49 -61 67 17 20 45 21 61 1 10 -12 16 -13 27
-3 13 10 12 15 -7 30 -29 23 -82 23 -103 0z"/>
<path d="M4630 7852 c0 -10 -5 -23 -12 -30 -9 -9 -9 -15 0 -24 7 -7 12 -33 12
-58 0 -58 22 -90 61 -90 36 0 38 17 3 30 -23 9 -25 14 -22 62 3 46 6 53 26 56
12 2 22 7 22 12 0 5 -10 10 -22 12 -15 2 -24 11 -26 26 -4 27 -42 31 -42 4z"/>
<path d="M4271 7818 c-31 -16 -42 -43 -15 -36 11 3 26 9 35 12 18 8 53 -20 44
-35 -4 -5 -23 -9 -44 -9 -44 0 -61 -14 -61 -51 0 -38 19 -49 83 -47 l57 2 0
66 c0 38 -5 73 -12 83 -18 22 -59 30 -87 15z m57 -115 c-2 -11 -14 -19 -31
-21 -22 -3 -27 1 -27 17 0 17 6 21 31 21 24 0 30 -4 27 -17z"/>
<path d="M4437 7823 c-4 -3 -7 -44 -7 -90 0 -67 3 -83 15 -83 12 0 15 13 15
59 0 41 5 65 16 75 36 36 64 4 64 -75 0 -46 3 -59 15 -59 12 0 15 14 15 64 0
35 -3 72 -6 81 -9 24 -49 36 -79 25 -16 -6 -25 -6 -25 0 0 11 -13 13 -23 3z"/>
<path d="M4775 7795 c-54 -53 -16 -145 59 -145 44 0 66 9 66 26 0 11 -9 13
-40 8 -26 -4 -45 -2 -55 6 -27 22 -16 30 45 30 l60 0 0 30 c0 66 -86 95 -135
45z m103 -33 c2 -8 -12 -12 -42 -12 -50 0 -58 11 -24 34 19 13 25 14 42 3 11
-8 22 -19 24 -25z"/>
<path d="M3930 7113 c-305 -168 -940 -516 -1410 -774 -484 -266 -857 -477
-861 -486 -3 -10 -4 -704 -2 -1543 4 -1405 6 -1526 21 -1542 10 -9 118 -73
242 -141 124 -68 745 -411 1380 -762 635 -351 1163 -644 1172 -653 10 -8 26
-12 36 -10 10 3 630 345 1377 760 748 416 1378 765 1400 777 l40 21 5 1545 c3
850 4 1549 2 1555 -2 5 -22 18 -45 28 -23 11 -658 360 -1411 776 -753 416
-1374 756 -1380 755 -6 0 -261 -138 -566 -306z m560 114 c0 -125 -2 -144 -17
-153 -10 -6 -304 -168 -653 -359 -349 -191 -904 -496 -1233 -677 l-599 -329
-134 73 c-125 69 -132 74 -111 86 68 40 2733 1501 2740 1502 4 0 7 -64 7 -143z
m1015 -402 c1636 -903 1755 -969 1755 -975 0 -3 -47 -31 -104 -63 l-104 -57
-34 19 c-18 10 -143 77 -278 149 -135 71 -630 334 -1100 584 -470 250 -909
483 -975 518 -66 35 -126 67 -132 73 -9 7 -13 50 -13 154 l0 144 43 -25 c23
-13 447 -248 942 -521z m-1027 -60 c-23 -21 -2188 -1205 -2203 -1205 -8 0 -66
29 -130 64 l-117 64 209 114 c214 118 731 403 1698 934 l550 303 3 -132 c2
-96 -1 -134 -10 -142z m189 191 c357 -191 595 -318 913 -486 190 -101 491
-262 670 -357 179 -95 421 -224 537 -285 117 -62 213 -116 213 -120 0 -6 -222
-130 -245 -136 -6 -1 -404 207 -885 463 -481 257 -982 523 -1112 593 l-238
126 0 138 c0 76 2 138 5 138 3 0 67 -33 142 -74z m-177 -359 c0 -84 -4 -128
-12 -139 -20 -24 -1893 -1048 -1918 -1048 -21 0 -225 103 -234 119 -4 6 2139
1190 2157 1191 4 0 7 -55 7 -123z m500 -137 c140 -75 478 -255 750 -400 272
-145 602 -320 732 -390 l237 -126 -123 -67 -123 -67 -554 298 c-305 165 -742
399 -971 522 l-418 223 0 129 0 130 108 -58 c59 -31 222 -119 362 -194z m-512
-295 c-17 -13 -1651 -905 -1658 -905 -15 0 -220 114 -214 119 3 3 425 236 937
517 l932 512 3 -120 c1 -66 1 -122 0 -123z m512 -8 c168 -90 409 -220 535
-289 127 -68 380 -205 564 -303 l333 -178 -98 -53 c-55 -30 -107 -56 -117 -60
-11 -3 -122 50 -310 149 -160 84 -536 282 -834 438 l-543 284 0 133 0 133 83
-45 c45 -24 219 -118 387 -209z m-512 -179 l-3 -142 -670 -368 c-368 -202
-676 -368 -684 -368 -8 0 -70 30 -138 67 -118 63 -123 67 -101 79 13 7 374
206 803 443 429 236 783 430 788 430 4 1 6 -63 5 -141z m130 79 c77 -40 800
-422 1097 -580 99 -52 240 -127 314 -165 l133 -70 -43 -25 c-156 -88 -180 -98
-207 -92 -15 4 -331 167 -702 363 l-675 357 -3 128 c-1 71 1 127 5 125 4 -2
41 -20 81 -41z m-2632 -982 c-3 -324 -6 -932 -6 -1351 l0 -761 -132 -72 c-98
-53 -134 -68 -140 -59 -9 16 -11 1868 -1 2520 l6 465 140 -76 139 -76 -6 -590z
m5314 -760 c0 -822 -3 -1495 -6 -1495 -3 0 -58 28 -121 63 l-115 62 7 1370 c3
756 10 1374 15 1379 11 11 202 115 213 116 4 0 7 -673 7 -1495z m-2233 1207
c290 -154 592 -312 670 -353 79 -41 143 -76 143 -79 0 -5 -181 -105 -230 -127
-24 -10 -66 10 -570 276 l-545 287 -3 137 c-1 75 0 137 2 137 3 0 243 -125
533 -278z m-577 140 l0 -128 -541 -297 -541 -297 -114 62 c-63 34 -113 65
-112 70 3 9 1287 717 1301 718 4 0 7 -58 7 -128z m2533 -1334 c-3 -739 -5
-1346 -6 -1350 -1 -4 -56 22 -123 59 l-121 66 5 1211 c2 679 8 1215 13 1220 6
7 217 128 235 136 1 0 -1 -604 -3 -1342z m-4764 1187 c11 -11 13 -209 12
-1201 -1 -654 -5 -1192 -9 -1196 -12 -10 -229 -128 -237 -128 -5 0 -5 377 -2
838 4 460 7 1057 7 1325 l0 489 108 -58 c59 -31 113 -62 121 -69z m4476 -1192
c-4 -654 -8 -1189 -9 -1190 -2 -2 -54 25 -117 60 l-114 63 0 594 c0 327 2 806
5 1064 l5 469 115 63 c63 35 117 64 119 64 2 0 0 -534 -4 -1187z m-2262 920
c-9 -7 -194 -110 -410 -229 l-393 -215 -110 58 c-60 32 -106 61 -102 65 4 4
237 134 517 288 l510 280 3 -118 c2 -101 0 -118 -15 -129z m-2027 175 l114
-63 -6 -1035 c-4 -668 -10 -1040 -17 -1048 -7 -9 -181 -109 -227 -130 -4 -1
-5 37 -4 85 1 49 3 569 4 1157 1 588 4 1075 7 1083 3 7 7 13 9 13 3 0 56 -28
120 -62z m2618 -213 c283 -148 515 -273 516 -277 0 -9 -204 -118 -222 -118 -8
0 -196 96 -419 213 l-404 213 -3 123 c-2 79 1 122 7 119 6 -1 242 -124 525
-273z m1388 -872 c-1 -560 -4 -1026 -5 -1035 -2 -13 -23 -5 -107 42 l-105 58
0 469 c0 257 2 671 3 920 l2 452 98 54 c53 30 102 55 107 56 7 1 10 -325 7
-1016z m-3644 884 c12 -9 13 -162 7 -902 -7 -859 -7 -891 -26 -907 -19 -16
-184 -108 -194 -108 -5 0 -3 1235 3 1758 l3 273 97 -52 c53 -28 103 -56 110
-62z m3383 -904 c-1 -488 -3 -888 -4 -889 -1 -1 -60 31 -131 70 l-129 71 6
754 c3 414 8 755 10 758 12 11 242 131 246 128 2 -3 3 -404 2 -892z m-1701
739 l0 -148 -252 -139 -253 -138 -82 43 c-45 23 -107 57 -139 75 l-57 32 179
99 c99 54 271 149 384 211 113 62 208 113 213 113 4 0 7 -67 7 -148z m-1457
44 l87 -48 -6 -731 c-6 -661 -8 -733 -23 -745 -18 -15 -229 -132 -237 -132 -5
0 -2 1023 4 1518 l3 233 42 -24 c23 -13 81 -45 130 -71z m1893 -108 c211 -112
384 -205 384 -208 0 -5 -214 -123 -243 -133 -12 -4 -103 39 -277 130 l-260
137 0 138 c0 76 3 138 6 138 3 0 178 -91 390 -202z m969 -665 c-4 -401 -9
-729 -10 -731 -1 -1 -55 26 -118 60 l-116 63 5 600 c5 426 10 603 18 612 13
13 207 122 219 123 5 0 6 -327 2 -727z m-2526 587 c16 -11 23 -26 23 -50 1
-19 0 -281 -1 -582 l-1 -547 -52 -29 c-29 -16 -84 -46 -121 -67 l-69 -38 3
716 3 716 96 -52 c53 -29 107 -59 119 -67z m2250 -569 c-2 -308 -6 -569 -9
-580 -5 -19 -13 -16 -110 37 l-105 57 2 215 c0 118 2 328 2 465 l1 250 108 57
c59 32 109 58 111 58 1 0 1 -252 0 -559z m-2071 474 c75 -42 101 -61 104 -78
2 -12 2 -212 0 -444 l-2 -422 -104 -56 c-57 -30 -106 -55 -110 -55 -3 0 -6
250 -6 555 0 305 4 555 9 555 4 0 53 -25 109 -55z m1335 -130 c71 -37 125 -71
120 -75 -4 -4 -60 -35 -123 -68 l-115 -61 -117 62 -118 62 0 133 0 134 113
-60 c61 -33 170 -90 240 -127z m-393 41 l0 -134 -111 -61 -112 -61 -123 68
c-70 38 -118 70 -111 73 253 140 453 249 455 249 1 0 2 -60 2 -134z m869 -401
c-1 -240 -5 -437 -8 -439 -3 -2 -66 28 -138 68 l-132 71 -1 281 c0 254 2 284
18 302 13 16 245 151 260 152 2 0 2 -196 1 -435z m-1523 333 l134 -73 0 -267
0 -268 -37 -23 c-48 -30 -230 -127 -237 -127 -3 0 -6 187 -6 415 0 228 3 415
6 415 4 0 67 -33 140 -72z m1204 -344 l0 -266 -67 37 c-148 81 -173 97 -174
106 -1 5 -1 16 -1 24 0 8 0 66 1 128 l1 114 113 61 c61 34 115 62 120 62 4 0
7 -120 7 -266z m-812 128 c22 -14 22 -19 20 -131 l-3 -116 -115 -62 c-63 -35
-117 -63 -120 -63 -3 0 -4 35 -3 78 1 42 2 153 2 245 l1 169 98 -53 c53 -29
107 -59 120 -67z m470 30 l23 -15 -28 -16 c-15 -10 -58 -34 -95 -54 l-68 -37
0 105 0 105 72 -36 c40 -20 83 -43 96 -52z m-208 -22 l0 -101 -89 48 c-52 28
-86 52 -81 57 8 8 160 95 168 96 1 0 2 -45 2 -100z m270 -130 c0 -60 -3 -110
-7 -110 -5 0 -53 24 -107 54 l-99 53 69 38 c38 21 83 46 99 56 17 10 33 19 38
19 4 0 7 -49 7 -110z m-307 -6 c-1 -4 -38 -26 -82 -50 l-81 -44 0 95 0 95 83
-45 c45 -24 81 -47 80 -51z m37 -139 c0 -58 -3 -105 -6 -105 -7 0 -149 77
-177 96 -17 11 -9 18 75 63 51 28 96 51 101 51 4 0 7 -47 7 -105z m208 13 c36
-18 39 -16 -90 -87 l-78 -42 0 110 0 110 73 -40 c39 -22 82 -45 95 -51z m-328
-102 l115 -64 3 -136 3 -137 -73 41 c-40 22 -148 82 -240 132 -93 51 -168 95
-168 99 0 7 221 128 235 129 6 0 62 -29 125 -64z m524 -5 c65 -35 114 -67 109
-71 -10 -10 -442 -246 -466 -255 -16 -7 -17 2 -16 106 1 63 4 124 7 137 5 16
41 41 122 87 63 35 117 63 120 62 3 -1 58 -31 124 -66z m-646 -241 l242 -133
0 -139 c0 -76 -3 -138 -7 -138 -12 0 -773 422 -773 429 0 4 24 19 53 34 28 14
86 44 127 66 65 35 77 39 95 27 11 -7 129 -73 263 -146z m947 76 l136 -73
-383 -210 c-211 -116 -393 -216 -406 -222 l-23 -12 3 152 3 152 260 143 c143
79 263 144 267 144 3 0 68 -33 143 -74z m-1115 -310 l405 -225 3 -120 c2 -73
-1 -121 -7 -121 -10 0 -994 539 -1024 562 -16 12 -8 19 85 70 57 31 110 57
118 57 8 0 197 -100 420 -223z m1395 157 c58 -32 105 -60 105 -63 0 -6 -1042
-580 -1053 -580 -4 0 -7 53 -7 118 l0 118 423 232 c232 127 423 232 425 232 2
0 50 -26 107 -57z m-1540 -370 c286 -157 528 -293 538 -301 14 -13 17 -34 17
-144 0 -86 -4 -128 -11 -128 -18 0 -1329 724 -1326 733 4 14 232 135 247 131
8 -3 249 -134 535 -291z m1812 222 c62 -33 113 -63 113 -66 0 -4 -1152 -641
-1333 -736 -4 -3 -6 55 -5 128 l3 132 550 303 c303 167 552 302 555 301 3 -1
56 -29 117 -62z m-1956 -465 c371 -205 680 -377 687 -382 12 -11 18 -238 6
-251 -3 -3 -20 3 -37 13 -18 10 -300 165 -627 345 -780 429 -934 515 -942 523
-9 9 213 133 228 128 5 -2 314 -171 685 -376z m2253 302 l124 -67 -746 -410
c-410 -226 -781 -429 -824 -453 l-78 -42 0 143 0 143 683 376 c375 207 690
376 700 377 10 1 73 -29 141 -67z m-2379 -535 c440 -242 806 -447 812 -455 14
-17 18 -229 5 -248 -4 -7 -298 153 -812 443 -443 249 -865 487 -938 527 l-134
74 113 60 c94 50 116 59 133 50 12 -6 381 -209 821 -451z m2651 386 c82 -45
102 -59 92 -68 -7 -7 -132 -77 -278 -157 -146 -80 -562 -308 -924 -507 -362
-200 -665 -365 -673 -368 -11 -4 -13 16 -11 116 l3 122 835 459 c459 252 839
459 843 460 5 0 56 -26 113 -57z m-3647 -127 c53 -29 416 -233 806 -453 391
-220 776 -437 858 -482 l147 -83 0 -130 c0 -71 -4 -128 -8 -126 -8 3 -1146
637 -1567 873 -110 61 -287 160 -394 220 -164 92 -191 109 -175 118 131 74
212 116 223 117 8 0 57 -24 110 -54z m3922 -22 c57 -31 107 -59 111 -63 3 -3
-312 -181 -700 -394 -389 -213 -878 -482 -1087 -597 -209 -115 -384 -210 -388
-210 -4 0 -6 60 -5 132 l3 133 575 315 c316 174 748 411 960 528 212 116 394
211 406 212 12 0 68 -25 125 -56z m-3993 -251 c583 -325 836 -466 1360 -758
l522 -290 0 -142 0 -142 -182 101 c-101 55 -218 120 -261 145 -43 24 -178 100
-300 167 -122 68 -478 266 -792 441 -313 175 -648 361 -743 413 -95 53 -171
100 -169 105 2 7 233 136 245 137 2 0 146 -80 320 -177z m4278 95 c63 -33 114
-64 114 -67 0 -3 -523 -293 -1163 -644 -639 -351 -1195 -656 -1235 -678 l-73
-41 3 138 3 139 310 169 c171 94 668 367 1105 608 437 240 801 437 809 437 7
1 65 -27 127 -61z m-4414 -350 c238 -132 532 -296 653 -363 121 -67 375 -209
565 -315 190 -106 408 -227 485 -270 77 -42 179 -99 227 -126 l88 -49 0 -129
c0 -118 -1 -128 -17 -121 -10 3 -171 91 -358 194 -187 104 -794 439 -1350 746
-555 307 -1014 560 -1018 562 -5 3 47 36 115 73 117 65 124 67 150 54 15 -8
222 -123 460 -256z m4682 208 c56 -30 109 -61 119 -68 15 -11 -145 -103 -1355
-775 -755 -420 -1376 -763 -1381 -763 -4 0 -7 59 -7 131 0 108 3 133 16 147
14 13 2489 1379 2503 1381 2 1 49 -23 105 -53z"/>
<path d="M8137 6153 c-15 -14 -7 -43 12 -43 26 0 36 17 21 35 -14 16 -23 19
-33 8z"/>
<path d="M8407 6154 c-4 -4 -7 -63 -7 -131 0 -117 1 -123 20 -123 20 0 20 5
18 127 -3 117 -10 148 -31 127z"/>
<path d="M7566 6104 c-36 -36 -16 -73 64 -116 20 -12 30 -24 28 -35 -4 -24
-53 -29 -83 -9 -33 22 -46 -1 -15 -26 48 -39 130 -12 130 42 0 29 -19 49 -79
82 -20 11 -29 22 -25 32 9 22 35 28 59 12 31 -20 59 -2 31 19 -26 20 -90 19
-110 -1z"/>
<path d="M7751 6034 c-66 -84 44 -180 125 -111 59 51 20 137 -62 137 -34 0
-47 -5 -63 -26z m99 -14 c36 -36 18 -90 -30 -90 -40 0 -67 39 -49 72 23 43 48
49 79 18z"/>
<path d="M7968 6046 c-64 -48 -25 -146 57 -146 42 0 75 24 58 41 -10 10 -16
10 -25 1 -19 -19 -66 -15 -78 7 -17 32 -11 60 15 77 21 14 30 14 55 4 35 -14
49 -8 30 15 -15 19 -88 20 -112 1z"/>
<path d="M8140 5980 c0 -64 3 -80 15 -80 12 0 15 16 15 80 0 64 -3 80 -15 80
-12 0 -15 -16 -15 -80z"/>
<path d="M8230 6045 c-19 -23 -5 -29 30 -15 24 10 33 10 45 0 24 -20 18 -27
-25 -33 -49 -6 -70 -22 -70 -52 0 -34 20 -44 89 -43 l64 1 -6 64 c-2 35 -10
70 -17 78 -17 20 -94 20 -110 0z m90 -83 c0 -15 -24 -32 -47 -32 -22 0 -31 19
-16 33 9 10 63 9 63 -1z"/>
<path d="M1350 6020 c-18 -43 -3 -51 26 -15 29 36 30 45 5 45 -11 0 -23 -12
-31 -30z"/>
<path d="M967 6023 c-4 -3 -7 -57 -7 -120 0 -106 1 -113 20 -113 19 0 20 7 20
120 0 93 -3 120 -13 120 -8 0 -17 -3 -20 -7z"/>
<path d="M1050 6010 c0 -13 7 -20 20 -20 13 0 20 7 20 20 0 13 -7 20 -20 20
-13 0 -20 -7 -20 -20z"/>
<path d="M390 5900 l0 -110 75 0 c43 0 75 4 75 10 0 6 -25 10 -55 10 l-55 0 0
39 c0 39 1 40 38 43 20 2 37 8 37 13 0 6 -17 11 -37 13 -35 3 -38 6 -38 33 0
28 1 29 50 29 38 0 50 4 50 15 0 12 -14 15 -70 15 l-70 0 0 -110z"/>
<path d="M1143 5970 c-3 -11 -9 -20 -14 -20 -5 0 -9 -7 -9 -15 0 -8 4 -15 9
-15 5 0 11 -25 13 -56 5 -60 16 -74 61 -74 34 0 35 16 2 24 -22 6 -25 11 -25
56 0 47 2 50 26 50 31 0 28 23 -4 28 -14 2 -22 11 -22 23 0 25 -30 25 -37 -1z"/>
<path d="M613 5940 c-46 -18 -58 -95 -22 -131 16 -16 30 -20 65 -17 36 2 44 0
42 -12 -4 -18 -59 -25 -87 -11 -27 15 -41 -7 -16 -26 31 -22 92 -16 120 12 22
22 25 32 25 104 0 76 -12 110 -30 81 -6 -9 -13 -9 -28 -1 -24 13 -39 13 -69 1z
m75 -32 c7 -7 12 -27 12 -45 0 -25 -6 -36 -24 -44 -49 -23 -92 30 -62 76 18
27 54 33 74 13z"/>
<path d="M811 5937 c-25 -13 -26 -34 -1 -29 42 10 65 6 68 -10 3 -14 -3 -18
-28 -18 -44 0 -70 -17 -70 -44 0 -35 20 -46 83 -44 l57 2 0 55 c0 62 -5 73
-37 90 -27 14 -42 14 -72 -2z m69 -97 c0 -14 -37 -31 -54 -24 -17 7 -20 16 -9
27 10 11 63 8 63 -3z"/>
<path d="M1050 5870 c0 -73 2 -80 20 -80 18 0 20 7 20 80 0 73 -2 80 -20 80
-18 0 -20 -7 -20 -80z"/>
<path d="M1320 5943 c-60 -23 -77 -86 -35 -128 25 -26 85 -34 114 -16 23 15 3
31 -24 21 -27 -10 -75 2 -75 19 0 6 26 11 58 13 49 3 57 6 60 24 6 41 -56 83
-98 67z m44 -29 c33 -13 17 -34 -24 -34 -41 0 -49 7 -28 28 13 13 28 15 52 6z"/>
<path d="M1501 2599 c-14 -40 -14 -39 2 -39 11 0 47 49 47 64 0 3 -9 6 -19 6
-12 0 -23 -11 -30 -31z"/>
<path d="M8730 2600 c-7 -17 -10 -34 -6 -38 9 -8 45 37 46 56 0 24 -28 11 -40
-18z"/>
<path d="M410 2613 c-23 -8 -40 -34 -40 -60 0 -13 -4 -23 -10 -23 -5 0 -10 -7
-10 -15 0 -8 5 -15 10 -15 6 0 10 -28 10 -65 0 -58 2 -65 20 -65 18 0 20 7 20
65 0 50 3 65 14 65 24 0 30 21 7 27 -29 7 -29 53 -1 60 12 3 19 10 17 16 -4
13 -18 17 -37 10z"/>
<path d="M510 2607 c-17 -9 -26 -22 -28 -45 -2 -17 -7 -32 -13 -32 -5 0 -9 -7
-9 -15 0 -8 5 -15 10 -15 6 0 10 -28 10 -65 0 -51 3 -65 15 -65 12 0 15 13 15
61 0 52 3 62 20 66 26 7 26 29 -1 36 -27 7 -22 39 9 52 22 10 25 26 6 32 -5 1
-20 -3 -34 -10z"/>
<path d="M579 2604 c-9 -11 -9 -18 -1 -26 14 -14 42 -3 42 16 0 20 -27 27 -41
10z"/>
<path d="M1211 2611 c-17 -11 -7 -41 13 -41 22 0 30 20 15 36 -9 8 -19 10 -28
5z"/>
<path d="M8446 2595 c-6 -17 16 -31 33 -21 13 9 2 36 -14 36 -7 0 -16 -7 -19
-15z"/>
<path d="M180 2480 l0 -110 76 0 c56 0 75 3 72 13 -3 7 -26 13 -56 15 -52 3
-52 3 -52 37 0 32 2 34 38 37 20 2 37 8 37 13 0 6 -17 11 -37 13 -35 3 -38 6
-38 33 0 28 1 29 50 29 38 0 50 4 50 15 0 12 -14 15 -70 15 l-70 0 0 -110z"/>
<path d="M7430 2480 c0 -81 3 -100 14 -100 11 0 16 14 18 48 l3 47 50 0 50 0
3 -47 c2 -34 7 -48 18 -48 11 0 14 19 14 100 0 80 -3 100 -14 100 -10 0 -16
-13 -18 -37 l-3 -38 -50 0 -50 0 -3 38 c-2 24 -8 37 -18 37 -11 0 -14 -20 -14
-100z"/>
<path d="M1300 2551 c0 -10 -8 -22 -17 -26 -17 -6 -17 -7 0 -19 12 -9 17 -27
17 -59 0 -54 19 -77 62 -77 34 0 35 23 0 28 -19 3 -22 10 -22 53 0 42 3 49 20
49 11 0 20 7 20 15 0 8 -9 15 -20 15 -13 0 -20 7 -20 20 0 13 -7 20 -20 20
-13 0 -20 -7 -20 -19z"/>
<path d="M8540 2550 c0 -11 -7 -20 -15 -20 -8 0 -15 -5 -15 -10 0 -6 7 -13 15
-16 10 -4 15 -21 15 -53 0 -54 12 -71 52 -71 35 0 37 16 3 24 -22 6 -25 12
-25 50 0 37 3 45 20 48 29 4 30 22 3 26 -15 2 -23 10 -23 23 0 10 -7 19 -15
19 -8 0 -15 -9 -15 -20z"/>
<path d="M580 2450 c0 -64 3 -80 15 -80 12 0 15 16 15 80 0 64 -3 80 -15 80
-12 0 -15 -16 -15 -80z"/>
<path d="M705 2520 c-31 -12 -46 -35 -47 -71 -1 -42 39 -79 86 -79 37 0 66 24
49 41 -8 8 -13 7 -17 0 -13 -20 -64 -13 -76 10 -26 48 20 96 68 70 27 -14 32
-14 32 4 0 29 -52 43 -95 25z"/>
<path d="M861 2514 c-16 -11 -19 -20 -12 -27 7 -7 15 -6 25 2 20 16 61 10 61
-9 0 -10 -12 -16 -35 -18 -43 -4 -60 -18 -60 -47 0 -34 19 -43 84 -43 l59 1
-6 61 c-4 46 -11 65 -27 78 -28 22 -59 23 -89 2z m74 -94 c0 -10 -12 -16 -32
-18 -24 -2 -33 1 -33 12 0 8 6 17 13 20 22 9 52 1 52 -14z"/>
<path d="M1065 2520 c-55 -22 -66 -88 -21 -127 31 -26 87 -31 106 -8 16 19 3
40 -15 25 -19 -15 -66 -9 -78 11 -5 9 -7 28 -3 42 7 31 49 46 77 28 24 -15 29
-14 29 4 0 29 -52 43 -95 25z"/>
<path d="M1210 2450 c0 -64 3 -80 15 -80 12 0 15 16 15 80 0 64 -3 80 -15 80
-12 0 -15 -16 -15 -80z"/>
<path d="M1447 2510 c-62 -49 -30 -139 50 -140 41 0 63 9 63 26 0 11 -9 13
-40 8 -26 -4 -45 -2 -55 6 -28 23 -16 30 50 30 57 0 65 2 65 19 0 25 -55 71
-84 71 -13 0 -35 -9 -49 -20z m82 -23 c6 -8 8 -17 4 -20 -9 -10 -83 -9 -83 1
0 29 59 43 79 19z"/>
<path d="M7650 2477 c0 -67 20 -97 64 -97 48 0 66 25 66 93 0 44 -3 57 -15 57
-12 0 -15 -13 -15 -55 0 -42 -4 -56 -18 -64 -34 -18 -52 5 -52 64 0 42 -4 55
-15 55 -11 0 -15 -13 -15 -53z"/>
<path d="M7830 2453 c0 -57 3 -73 15 -73 10 0 15 15 17 58 3 51 5 57 27 60 31
5 41 -12 41 -70 0 -35 4 -48 15 -48 10 0 15 15 17 58 3 51 5 57 27 60 31 5 41
-12 41 -70 0 -36 4 -48 15 -48 12 0 15 13 15 55 0 79 -37 113 -91 84 -13 -7
-24 -7 -32 -1 -7 6 -33 10 -59 10 l-48 -1 0 -74z"/>
<path d="M8123 2520 c-37 -15 -27 -29 18 -27 26 1 44 -3 46 -10 3 -9 -6 -13
-25 -13 -16 0 -40 -8 -53 -19 -20 -16 -22 -22 -12 -44 11 -24 17 -26 73 -25
l60 1 0 31 c0 42 -17 98 -32 108 -17 10 -47 9 -75 -2z m67 -90 c0 -18 -40 -32
-56 -20 -7 7 -11 16 -8 21 7 12 64 11 64 -1z"/>
<path d="M8270 2453 c0 -57 3 -73 15 -73 10 0 15 15 17 58 3 56 3 57 33 57 30
0 30 -1 33 -57 2 -43 7 -58 17 -58 12 0 15 14 15 59 0 76 -13 90 -80 89 l-50
-1 0 -74z"/>
<path d="M8450 2455 c0 -60 3 -75 15 -75 12 0 15 15 15 75 0 60 -3 75 -15 75
-12 0 -15 -15 -15 -75z"/>
<path d="M8683 2518 c-48 -23 -51 -103 -4 -127 37 -20 101 -11 101 15 0 16 -2
17 -32 5 -25 -9 -68 2 -68 18 0 6 26 11 58 13 54 3 57 4 54 28 -5 49 -58 72
-109 48z m75 -35 c2 -9 -9 -13 -37 -13 -32 0 -39 3 -34 16 7 18 64 16 71 -3z"/>
<path d="M5330 964 c-12 -31 -13 -44 -1 -44 10 0 41 45 41 60 0 21 -31 9 -40
-16z"/>
<path d="M4632 953 c5 -26 38 -29 38 -4 0 15 -6 21 -21 21 -14 0 -19 -5 -17
-17z"/>
<path d="M4720 862 l0 -108 55 -2 c47 -1 57 2 75 25 11 14 20 35 20 47 0 50
-58 88 -100 66 -19 -10 -20 -7 -20 35 0 33 -4 45 -15 45 -12 0 -15 -19 -15
-108z m104 -8 c23 -23 20 -51 -8 -69 -33 -22 -66 -5 -66 33 0 49 42 69 74 36z"/>
<path d="M4902 953 c2 -10 10 -18 18 -18 8 0 16 8 18 18 2 12 -3 17 -18 17
-15 0 -20 -5 -18 -17z"/>
<path d="M4980 860 c0 -91 3 -110 15 -110 12 0 15 19 15 110 0 91 -3 110 -15
110 -12 0 -15 -19 -15 -110z"/>
<path d="M5060 949 c0 -14 5 -19 17 -17 26 5 29 38 4 38 -15 0 -21 -6 -21 -21z"/>
<path d="M3712 915 c-11 -22 -31 -68 -45 -102 -20 -50 -23 -63 -11 -63 8 0 17
7 20 15 4 11 21 15 55 15 35 0 51 -4 55 -15 4 -8 13 -15 21 -15 18 0 14 14
-36 122 l-38 83 -21 -40z m42 -82 c7 -20 4 -23 -23 -23 -36 0 -36 1 -15 42 17
33 23 30 38 -19z"/>
<path d="M5150 919 c0 -7 -8 -18 -17 -25 -17 -13 -17 -15 0 -25 12 -7 17 -23
17 -52 0 -50 13 -67 52 -67 33 0 38 17 6 22 -20 3 -23 10 -26 51 -3 42 -1 47
17 47 12 0 21 7 21 15 0 8 -9 15 -20 15 -11 0 -20 7 -20 15 0 8 -7 15 -15 15
-8 0 -15 -5 -15 -11z"/>
<path d="M3900 893 c-51 -18 -68 -85 -30 -123 24 -24 82 -27 100 -5 18 21 7
28 -22 14 -37 -16 -68 3 -68 42 0 37 35 58 68 40 11 -6 23 -11 26 -11 9 0 7
28 -1 33 -17 9 -59 15 -73 10z"/>
<path d="M4064 890 c-26 -10 -54 -48 -54 -73 0 -49 82 -85 125 -54 24 18 3 32
-25 17 -43 -23 -88 34 -54 71 20 22 44 25 62 7 8 -8 15 -9 22 -2 22 22 -40 49
-76 34z"/>
<path d="M4224 886 c-92 -41 -24 -166 70 -130 9 3 16 12 16 20 0 10 -6 11 -26
3 -21 -7 -32 -6 -53 8 l-26 18 55 3 c65 4 75 11 59 44 -9 20 -48 50 -62 48 -1
-1 -16 -7 -33 -14z m50 -22 c30 -12 18 -34 -19 -34 -24 0 -35 5 -35 14 0 21
27 31 54 20z"/>
<path d="M4383 890 c-16 -6 -23 -18 -23 -35 0 -20 8 -29 35 -41 19 -8 35 -18
35 -24 0 -16 -19 -21 -40 -10 -26 14 -45 4 -29 -16 6 -8 26 -14 43 -14 63 0
76 49 21 81 -43 26 -46 44 -5 36 38 -8 49 10 15 23 -14 6 -27 10 -28 9 -1 0
-12 -4 -24 -9z"/>
<path d="M4530 893 c-48 -17 -43 -61 10 -83 16 -7 30 -17 30 -22 0 -15 -28
-20 -50 -8 -26 14 -37 6 -20 -15 7 -8 27 -15 45 -15 62 0 74 54 18 80 -42 20
-45 45 -3 37 37 -8 47 7 14 22 -14 6 -26 11 -27 10 -1 0 -9 -3 -17 -6z"/>
<path d="M4640 825 c0 -60 3 -75 15 -75 12 0 15 15 15 75 0 60 -3 75 -15 75
-12 0 -15 -15 -15 -75z"/>
<path d="M4910 826 c0 -62 3 -76 15 -76 13 0 15 12 13 72 -2 46 -7 73 -15 76
-10 3 -13 -16 -13 -72z"/>
<path d="M5067 893 c-4 -3 -7 -37 -7 -75 0 -61 2 -68 20 -68 18 0 20 7 20 59
0 78 -11 106 -33 84z"/>
<path d="M5294 886 c-93 -41 -25 -167 70 -130 9 3 16 12 16 20 0 10 -6 11 -24
4 -29 -11 -63 -3 -70 16 -4 11 7 14 49 14 50 0 55 2 55 23 0 28 -9 41 -37 56
-26 13 -21 13 -59 -3z m50 -22 c30 -12 18 -34 -19 -34 -24 0 -35 5 -35 14 0
21 27 31 54 20z"/>
</g>
</svg>
